<svg viewBox="0 0 400 500" xmlns="http://www.w3.org/2000/svg">
  <defs>
    <linearGradient id="animeBg" x1="0" y1="0" x2="0" y2="1">
      <stop offset="0%" stop-color="#ff9fc2"/>
      <stop offset="100%" stop-color="#7ec9e0"/>
    </linearGradient>
  </defs>
  <rect width="400" height="500" fill="url(#animeBg)"/>

  <!-- kue ulang tahun bergaya kawaii sederhana -->
  <g transform="translate(200,290)">
    <rect x="-70" y="10" width="140" height="60" rx="10" fill="#FFFFFF" opacity="0.95"/>
    <rect x="-70" y="10" width="140" height="16" rx="8" fill="#F7F1E6"/>
    <rect x="-55" y="-35" width="110" height="50" rx="10" fill="#FFFFFF" opacity="0.95"/>
    <rect x="-55" y="-35" width="110" height="14" rx="7" fill="#F7F1E6"/>
    <!-- lilin -->
    <rect x="-6" y="-70" width="12" height="30" rx="3" fill="#E7C97A"/>
    <path d="M0 -85 Q 8 -75 0 -66 Q -8 -75 0 -85 Z" fill="#ff7a90"/>
    <!-- wajah kawaii di badan kue -->
    <circle cx="-20" cy="-10" r="3" fill="#3A1D42"/>
    <circle cx="20" cy="-10" r="3" fill="#3A1D42"/>
    <path d="M-10 0 Q 0 8 10 0" stroke="#3A1D42" stroke-width="2" fill="none" stroke-linecap="round"/>
    <circle cx="-28" cy="-2" r="4" fill="#ff9fc2" opacity="0.7"/>
    <circle cx="28" cy="-2" r="4" fill="#ff9fc2" opacity="0.7"/>
  </g>

  <!-- bintang & kilau -->
  <g fill="#FFFFFF" opacity="0.9">
    <path d="M90 120 l5 12 12 2 -9 9 2 12 -10 -6 -10 6 2 -12 -9 -9 12 -2 z"/>
    <path d="M310 160 l4 9 9 2 -7 6 1 9 -7 -4 -7 4 1 -9 -7 -6 9 -2 z"/>
    <path d="M320 380 l3 7 7 1 -5 5 1 7 -6 -3 -6 3 1 -7 -5 -5 7 -1 z"/>
    <circle cx="70" cy="380" r="3"/>
  </g>

  <text x="200" y="70" text-anchor="middle" font-family="Georgia, serif" font-size="22" fill="#3A1D42">Birthday Anime Style</text>
  <text x="200" y="95" text-anchor="middle" font-family="Georgia, serif" font-size="12" letter-spacing="2" fill="#5b3a52">CERIA &amp; PENUH WARNA</text>
</svg>
