<svg viewBox="0 0 400 500" xmlns="http://www.w3.org/2000/svg">
  <defs>
    <linearGradient id="romBg" x1="0" y1="0" x2="1" y2="1">
      <stop offset="0%" stop-color="#7a2e42"/>
      <stop offset="100%" stop-color="#2B1330"/>
    </linearGradient>
    <radialGradient id="romGlow" cx="50%" cy="20%" r="60%">
      <stop offset="0%" stop-color="#E8A7B3" stop-opacity="0.35"/>
      <stop offset="100%" stop-color="#E8A7B3" stop-opacity="0"/>
    </radialGradient>
  </defs>
  <rect width="400" height="500" fill="url(#romBg)"/>
  <rect width="400" height="500" fill="url(#romGlow)"/>

  <!-- garis dekoratif melengkung -->
  <path d="M40 460 C 120 420, 280 420, 360 460" stroke="#E7C97A" stroke-width="1.5" fill="none" opacity="0.5"/>

  <!-- rangkaian hati garis (line-art) -->
  <g stroke="#E7C97A" stroke-width="2" fill="none" opacity="0.9">
    <path d="M200 260 C 180 220, 120 220, 120 270 C 120 320, 200 370, 200 370 C 200 370, 280 320, 280 270 C 280 220, 220 220, 200 260 Z"/>
  </g>
  <g stroke="#F7F1E6" stroke-width="1.2" fill="none" opacity="0.55">
    <path d="M150 210 C 140 192, 110 192, 110 216 C 110 240, 150 264, 150 264 C 150 264, 190 240, 190 216 C 190 192, 160 192, 150 210 Z"/>
    <path d="M255 195 C 248 182, 228 182, 228 199 C 228 216, 255 233, 255 233 C 255 233, 282 216, 282 199 C 282 182, 262 182, 255 195 Z"/>
  </g>

  <!-- sulur bunga sederhana -->
  <g stroke="#E7C97A" stroke-width="1.3" fill="none" opacity="0.6">
    <path d="M80 120 Q 100 90 130 100 Q 150 108 140 130"/>
    <circle cx="130" cy="98" r="5" fill="none"/>
    <path d="M320 130 Q 300 100 270 112 Q 250 120 262 142"/>
    <circle cx="270" cy="110" r="5" fill="none"/>
  </g>

  <text x="200" y="60" text-anchor="middle" font-family="Georgia, serif" font-style="italic" font-size="22" fill="#F7F1E6" opacity="0.9">Birthday Romantic</text>
  <text x="200" y="85" text-anchor="middle" font-family="Georgia, serif" font-size="12" letter-spacing="2" fill="#E7C97A" opacity="0.8">UNTUK PASANGAN TERCINTA</text>
</svg>
