<svg viewBox="0 0 400 500" xmlns="http://www.w3.org/2000/svg">
  <defs>
    <linearGradient id="pastelBg" x1="0" y1="0" x2="0" y2="1">
      <stop offset="0%" stop-color="#dbe4fb"/>
      <stop offset="100%" stop-color="#f3d9ea"/>
    </linearGradient>
  </defs>
  <rect width="400" height="500" fill="url(#pastelBg)"/>

  <circle cx="200" cy="250" r="80" fill="none" stroke="#8fa8d6" stroke-width="1.4" opacity="0.5"/>
  <circle cx="200" cy="250" r="50" fill="#FFFFFF" opacity="0.7"/>

  <g fill="#c9b6f0" opacity="0.9">
    <path d="M200 225 c -6 -11 -24 -11 -24 5 c 0 13 24 28 24 28 c 0 0 24 -15 24 -28 c 0 -16 -18 -16 -24 -5 Z"/>
  </g>

  <g fill="#8fa8d6" opacity="0.6">
    <path d="M120 170 l4 9 9 2 -7 6 1 9 -7 -4 -7 4 1 -9 -7 -6 9 -2 z"/>
    <path d="M290 320 l4 9 9 2 -7 6 1 9 -7 -4 -7 4 1 -9 -7 -6 9 -2 z"/>
  </g>

  <text x="200" y="70" text-anchor="middle" font-family="Georgia, serif" font-size="22" fill="#3a3f52">Pastel Dream</text>
  <text x="200" y="95" text-anchor="middle" font-family="Georgia, serif" font-size="12" letter-spacing="2" fill="#8fa8d6">CERIA &amp; LEMBUT</text>
</svg>
